<?xml version="1.0" encoding="UTF-8" standalone="no"?>
<!DOCTYPE svg PUBLIC "-//W3C//DTD SVG 1.1//EN" "http://www.w3.org/Graphics/SVG/1.1/DTD/svg11.dtd">
<svg version="1.1" xmlns="http://www.w3.org/2000/svg" xmlns:xlink="http://www.w3.org/1999/xlink" preserveAspectRatio="xMidYMid meet" viewBox="239 239 124 124" width="50" height="50"><defs><path d="M240 240L360 240L360 360L240 360L240 240Z" id="gYZjSTNNL"></path><path d="M268.71 250.34C270.53 252.5 271.5 255.23 271.63 258.5C271.63 261.73 270.61 264.46 268.55 266.67C266.5 268.88 263.68 269.99 260.13 269.99C260.12 269.99 260.01 269.99 260 269.99C256.53 269.99 253.78 268.88 251.73 266.67C249.71 264.46 248.68 261.73 248.68 258.5C248.68 255.18 249.8 252.45 252.04 250.3C254.29 248.16 257.35 247.08 261.19 247.08C264.39 247.08 266.89 248.17 268.71 250.34ZM271.97 279.06L271.97 345.59L250.02 345.59L250.02 279.06L271.97 279.06ZM351.32 345.59L329.38 345.59C329.38 324.25 329.38 312.39 329.38 310.01C329.38 305.49 328.52 301.86 326.8 299.1C325.1 296.36 322.24 294.99 318.21 294.99C315.14 294.99 312.68 295.83 310.84 297.52C309 299.2 307.66 301.06 306.86 303.1C306.6 303.83 306.43 304.65 306.34 305.55C306.26 306.44 306.22 307.41 306.22 308.43C306.22 310.9 306.22 323.29 306.22 345.6C292.98 345.6 285.62 345.6 284.14 345.6C284.24 334.34 284.29 324.02 284.29 314.65C284.29 313.86 284.29 309.92 284.29 302.82C284.29 296.37 284.29 292.79 284.29 292.08C284.29 288.8 284.26 286.01 284.21 283.7C284.18 281.4 284.14 279.85 284.14 279.06C285.62 279.06 292.98 279.06 306.22 279.06L306.22 288.49L306.1 288.76L306.22 288.76C306.22 288.59 306.22 288.5 306.22 288.49C306.91 287.33 307.78 286.12 308.85 284.85C309.93 283.59 311.23 282.4 312.8 281.31C314.36 280.23 316.24 279.34 318.44 278.61C320.66 277.9 323.18 277.55 326.05 277.55C329.62 277.55 332.96 278.13 336.07 279.31C339.17 280.49 341.84 282.34 344.11 284.85C346.36 287.36 348.13 290.47 349.41 294.19C350.69 297.91 351.32 302.33 351.32 307.45C351.32 312.54 351.32 325.25 351.32 345.59Z" id="atgCKxR1G"></path></defs><g><g><use xlink:href="#gYZjSTNNL" opacity="1" fill="#ffffff" fill-opacity="0"></use></g><g><use xlink:href="#atgCKxR1G" opacity="1" fill="#0077d0" fill-opacity="1"></use><g><use xlink:href="#atgCKxR1G" opacity="1" fill-opacity="0" stroke="#000000" stroke-width="1" stroke-opacity="0"></use></g></g></g></svg>